<svg width="64" height="80" viewBox="0 0 64 80" fill="none" xmlns="http://www.w3.org/2000/svg">
<g filter="url(#filter0_i_191_928)">
<path d="M21.17 60.986C17.4193 60.986 14.036 60.2127 11.02 58.666C8.004 57.1193 5.60667 54.838 3.828 51.822C2.088 48.806 1.218 45.1327 1.218 40.802C1.218 37.554 1.74 34.6733 2.784 32.16C3.86667 29.6467 5.336 27.5393 7.192 25.838C9.08667 24.098 11.252 22.8027 13.688 21.952C16.124 21.0627 18.7147 20.618 21.46 20.618C23.5867 20.618 25.578 20.8693 27.434 21.372C29.29 21.836 31.0687 22.532 32.77 23.46L33.002 31.058H31.436L29 26.476C28.6133 25.7027 28.188 25.0067 27.724 24.388C27.2987 23.7693 26.738 23.3247 26.042 23.054C25.0753 22.59 23.9347 22.358 22.62 22.358C20.3387 22.358 18.2507 22.938 16.356 24.098C14.5 25.258 13.0113 27.1913 11.89 29.898C10.7687 32.566 10.208 36.22 10.208 40.86C10.208 45.4613 10.73 49.1153 11.774 51.822C12.8567 54.5287 14.3067 56.462 16.124 57.622C17.9413 58.7433 19.9907 59.304 22.272 59.304C23.316 59.304 24.1667 59.2267 24.824 59.072C25.4813 58.9173 26.1387 58.7047 26.796 58.434C27.5693 58.1247 28.1687 57.68 28.594 57.1C29.0193 56.4813 29.3867 55.7853 29.696 55.012L31.9 49.734H33.466L33.234 58.086C31.5713 59.014 29.7347 59.7293 27.724 60.232C25.7133 60.7347 23.5287 60.986 21.17 60.986ZM48.6353 60.986C46.5086 60.986 44.3433 60.7153 42.1393 60.174C39.9739 59.6713 38.1566 58.9947 36.6873 58.144L37.0353 50.082H38.7173L40.5153 54.084C41.0566 55.2053 41.6173 56.1333 42.1973 56.868C42.7773 57.6027 43.5506 58.1633 44.5173 58.55C45.1746 58.8207 45.7933 59.014 46.3733 59.13C46.9919 59.2073 47.6686 59.246 48.4033 59.246C50.7619 59.246 52.6179 58.6467 53.9713 57.448C55.3633 56.2107 56.0593 54.5867 56.0593 52.576C56.0593 50.7587 55.5759 49.328 54.6093 48.284C53.6813 47.24 52.1733 46.2347 50.0853 45.268L47.7073 44.224C44.4593 42.7933 41.8879 41.1307 39.9933 39.236C38.1373 37.3413 37.2093 34.828 37.2093 31.696C37.2093 29.376 37.7893 27.404 38.9493 25.78C40.1479 24.1173 41.7913 22.8413 43.8793 21.952C45.9673 21.0627 48.4033 20.618 51.1873 20.618C53.2366 20.618 55.1506 20.8887 56.9293 21.43C58.7466 21.9713 60.3319 22.706 61.6853 23.634L61.2793 30.826H59.5973L57.4513 26.476C56.8326 25.2 56.2333 24.2913 55.6533 23.75C55.1119 23.17 54.4353 22.8027 53.6233 22.648C53.1593 22.5707 52.7533 22.5127 52.4053 22.474C52.0959 22.4353 51.6706 22.416 51.1293 22.416C49.2346 22.416 47.5913 22.9767 46.1993 24.098C44.8459 25.1807 44.1693 26.6887 44.1693 28.622C44.1693 30.478 44.6913 31.986 45.7353 33.146C46.7793 34.306 48.2873 35.3307 50.2593 36.22L52.8693 37.322C56.6199 38.946 59.3073 40.686 60.9313 42.542C62.5553 44.3593 63.3673 46.6987 63.3673 49.56C63.3673 52.9627 62.0719 55.7273 59.4813 57.854C56.9293 59.942 53.3139 60.986 48.6353 60.986Z" fill="#816558"/>
</g>
<defs>
<filter id="filter0_i_191_928" x="1.21802" y="20.618" width="63.6492" height="41.868" filterUnits="userSpaceOnUse" color-interpolation-filters="sRGB">
<feFlood flood-opacity="0" result="BackgroundImageFix"/>
<feBlend mode="normal" in="SourceGraphic" in2="BackgroundImageFix" result="shape"/>
<feColorMatrix in="SourceAlpha" type="matrix" values="0 0 0 0 0 0 0 0 0 0 0 0 0 0 0 0 0 0 127 0" result="hardAlpha"/>
<feOffset dx="1.5" dy="1.5"/>
<feGaussianBlur stdDeviation="0.75"/>
<feComposite in2="hardAlpha" operator="arithmetic" k2="-1" k3="1"/>
<feColorMatrix type="matrix" values="0 0 0 0 0 0 0 0 0 0 0 0 0 0 0 0 0 0 0.25 0"/>
<feBlend mode="normal" in2="shape" result="effect1_innerShadow_191_928"/>
</filter>
</defs>
</svg>
