<svg width="90" height="80" viewBox="0 0 90 80" fill="none" xmlns="http://www.w3.org/2000/svg">
<g filter="url(#filter0_i_1028_555)">
<path d="M1.334 60V58.782L2.436 58.492C3.20933 58.26 3.712 57.912 3.944 57.448C4.176 56.984 4.31133 56.346 4.35 55.534C4.38867 53.33 4.408 51.1067 4.408 48.864C4.408 46.5827 4.408 44.3013 4.408 42.02V39.642C4.408 37.3993 4.408 35.1567 4.408 32.914C4.408 30.6713 4.38867 28.4287 4.35 26.186C4.31133 25.374 4.19533 24.7553 4.002 24.33C3.80867 23.866 3.34467 23.518 2.61 23.286L1.334 22.88V21.662H29.232L29.638 31.464H28.072L25.056 25.722C24.6693 24.9873 24.244 24.4267 23.78 24.04C23.316 23.6147 22.6393 23.402 21.75 23.402H12.818C12.7793 25.9927 12.7407 28.6607 12.702 31.406C12.702 34.1127 12.702 36.8193 12.702 39.526H18.27C19.1593 39.526 19.8167 39.3327 20.242 38.946C20.6673 38.5207 21.0733 37.9407 21.46 37.206L22.62 35.06H23.896V45.674H22.62L21.46 43.586C21.0347 42.8127 20.6093 42.2327 20.184 41.846C19.7973 41.4207 19.1593 41.208 18.27 41.208H12.702C12.702 43.76 12.702 46.2153 12.702 48.574C12.702 50.894 12.7213 53.1753 12.76 55.418C12.76 57.0033 13.4753 57.9893 14.906 58.376L16.646 58.782V60H1.334Z" fill="#7F8E9F"/>
</g>
<defs>
<filter id="filter0_i_1028_555" x="1.334" y="21.6621" width="29.804" height="39.8379" filterUnits="userSpaceOnUse" color-interpolation-filters="sRGB">
<feFlood flood-opacity="0" result="BackgroundImageFix"/>
<feBlend mode="normal" in="SourceGraphic" in2="BackgroundImageFix" result="shape"/>
<feColorMatrix in="SourceAlpha" type="matrix" values="0 0 0 0 0 0 0 0 0 0 0 0 0 0 0 0 0 0 127 0" result="hardAlpha"/>
<feOffset dx="1.5" dy="1.5"/>
<feGaussianBlur stdDeviation="0.75"/>
<feComposite in2="hardAlpha" operator="arithmetic" k2="-1" k3="1"/>
<feColorMatrix type="matrix" values="0 0 0 0 0 0 0 0 0 0 0 0 0 0 0 0 0 0 0.25 0"/>
<feBlend mode="normal" in2="shape" result="effect1_innerShadow_1028_555"/>
</filter>
</defs>
</svg>
