<svg width="90" height="80" viewBox="0 0 90 80" fill="none" xmlns="http://www.w3.org/2000/svg">
<g filter="url(#filter0_i_1028_538)">
<path d="M21.112 60.986C17.168 60.986 13.7073 60.1547 10.73 58.492C7.75267 56.8293 5.41333 54.49 3.712 51.474C2.04933 48.4193 1.218 44.8427 1.218 40.744C1.218 36.7227 2.03 33.204 3.654 30.188C5.31667 27.172 7.714 24.8327 10.846 23.17C13.978 21.4687 17.7287 20.618 22.098 20.618C24.186 20.618 26.1193 20.85 27.898 21.314C29.7153 21.778 31.4167 22.4547 33.002 23.344L33.234 31.638H31.668L28.768 25.78C28.304 24.852 27.8593 24.1753 27.434 23.75C27.0087 23.3247 26.448 23.0153 25.752 22.822C25.2493 22.6287 24.766 22.5127 24.302 22.474C23.838 22.3967 23.2387 22.358 22.504 22.358C20.068 22.358 17.922 22.996 16.066 24.272C14.21 25.5093 12.76 27.4813 11.716 30.188C10.7107 32.8947 10.208 36.4133 10.208 40.744C10.208 47.2787 11.2713 52.0153 13.398 54.954C15.5633 57.854 18.444 59.304 22.04 59.304C22.8907 59.304 23.6253 59.188 24.244 58.956C24.9787 58.84 25.4813 58.55 25.752 58.086C26.0227 57.5833 26.158 56.9647 26.158 56.23C26.158 54.6447 26.1387 52.924 26.1 51.068C26.1 49.1733 26.1 47.4527 26.1 45.906C26.1 44.398 25.3073 43.47 23.722 43.122L21.112 42.542V41.324H37.12V42.542L36.424 42.716C35.6893 42.948 35.1287 43.296 34.742 43.76C34.3553 44.1853 34.162 44.7847 34.162 45.558C34.162 47.1047 34.1427 48.69 34.104 50.314C34.104 51.8993 34.104 53.504 34.104 55.128V57.622C32.0933 58.7047 30.044 59.536 27.956 60.116C25.9067 60.696 23.6253 60.986 21.112 60.986Z" fill="#CFB5A5"/>
</g>
<defs>
<filter id="filter0_i_1028_538" x="1.218" y="20.618" width="37.402" height="41.8679" filterUnits="userSpaceOnUse" color-interpolation-filters="sRGB">
<feFlood flood-opacity="0" result="BackgroundImageFix"/>
<feBlend mode="normal" in="SourceGraphic" in2="BackgroundImageFix" result="shape"/>
<feColorMatrix in="SourceAlpha" type="matrix" values="0 0 0 0 0 0 0 0 0 0 0 0 0 0 0 0 0 0 127 0" result="hardAlpha"/>
<feOffset dx="1.5" dy="1.5"/>
<feGaussianBlur stdDeviation="0.75"/>
<feComposite in2="hardAlpha" operator="arithmetic" k2="-1" k3="1"/>
<feColorMatrix type="matrix" values="0 0 0 0 0 0 0 0 0 0 0 0 0 0 0 0 0 0 0.25 0"/>
<feBlend mode="normal" in2="shape" result="effect1_innerShadow_1028_538"/>
</filter>
</defs>
</svg>
