<svg width="90" height="80" viewBox="0 0 90 80" fill="none" xmlns="http://www.w3.org/2000/svg">
<g filter="url(#filter0_i_1028_532)">
<path d="M1.334 60V58.782L2.494 58.434C3.306 58.1633 3.828 57.8153 4.06 57.39C4.292 56.926 4.408 56.288 4.408 55.476V26.128C4.408 25.3547 4.292 24.7553 4.06 24.33C3.828 23.866 3.32533 23.4987 2.552 23.228L1.334 22.88V21.662H15.718V22.88L14.616 23.228C13.8813 23.4987 13.3787 23.866 13.108 24.33C12.876 24.794 12.76 25.432 12.76 26.244V58.26H21.286C22.6007 58.26 23.5867 57.9313 24.244 57.274C24.9013 56.6167 25.52 55.6693 26.1 54.432L28.246 49.618H29.87L29.29 60H1.334Z" fill="#CFB5A5"/>
</g>
<defs>
<filter id="filter0_i_1028_532" x="1.334" y="21.662" width="30.036" height="39.838" filterUnits="userSpaceOnUse" color-interpolation-filters="sRGB">
<feFlood flood-opacity="0" result="BackgroundImageFix"/>
<feBlend mode="normal" in="SourceGraphic" in2="BackgroundImageFix" result="shape"/>
<feColorMatrix in="SourceAlpha" type="matrix" values="0 0 0 0 0 0 0 0 0 0 0 0 0 0 0 0 0 0 127 0" result="hardAlpha"/>
<feOffset dx="1.5" dy="1.5"/>
<feGaussianBlur stdDeviation="0.75"/>
<feComposite in2="hardAlpha" operator="arithmetic" k2="-1" k3="1"/>
<feColorMatrix type="matrix" values="0 0 0 0 0 0 0 0 0 0 0 0 0 0 0 0 0 0 0.25 0"/>
<feBlend mode="normal" in2="shape" result="effect1_innerShadow_1028_532"/>
</filter>
</defs>
</svg>
