<svg width="61" height="40" viewBox="0 0 61 40" fill="none" xmlns="http://www.w3.org/2000/svg">
<g filter="url(#filter0_i_1020_299)">
<path d="M0.334 39V37.782L1.494 37.434C2.306 37.1633 2.828 36.8153 3.06 36.39C3.292 35.926 3.408 35.288 3.408 34.476V5.128C3.408 4.35466 3.292 3.75533 3.06 3.33C2.828 2.866 2.32533 2.49867 1.552 2.228L0.334 1.88V0.661999H14.718V1.88L13.616 2.228C12.8813 2.49867 12.3787 2.866 12.108 3.33C11.876 3.794 11.76 4.432 11.76 5.244V37.26H20.286C21.6007 37.26 22.5867 36.9313 23.244 36.274C23.9013 35.6167 24.52 34.6693 25.1 33.432L27.246 28.618H28.87L28.29 39H0.334ZM40.6259 39.232L28.2139 5.012C27.7112 3.58133 26.7252 2.65333 25.2559 2.228L23.9799 1.88V0.661999H40.0459V1.822L38.4219 2.228C37.5325 2.46 37.0299 2.866 36.9139 3.446C36.8365 4.026 36.9525 4.76066 37.2619 5.65L45.6139 30.416L54.0239 5.65C54.3332 4.76066 54.4685 4.026 54.4299 3.446C54.4299 2.866 53.9852 2.46 53.0959 2.228L51.7039 1.822V0.661999H60.3459V1.88L58.8959 2.228C58.0839 2.42133 57.5039 2.75 57.1559 3.214C56.8465 3.678 56.5565 4.316 56.2859 5.128L44.7439 39.232H40.6259Z" fill="#CFB5A5"/>
</g>
<defs>
<filter id="filter0_i_1020_299" x="0.333984" y="0.662003" width="61.5119" height="40.07" filterUnits="userSpaceOnUse" color-interpolation-filters="sRGB">
<feFlood flood-opacity="0" result="BackgroundImageFix"/>
<feBlend mode="normal" in="SourceGraphic" in2="BackgroundImageFix" result="shape"/>
<feColorMatrix in="SourceAlpha" type="matrix" values="0 0 0 0 0 0 0 0 0 0 0 0 0 0 0 0 0 0 127 0" result="hardAlpha"/>
<feOffset dx="1.5" dy="1.5"/>
<feGaussianBlur stdDeviation="0.75"/>
<feComposite in2="hardAlpha" operator="arithmetic" k2="-1" k3="1"/>
<feColorMatrix type="matrix" values="0 0 0 0 0 0 0 0 0 0 0 0 0 0 0 0 0 0 0.25 0"/>
<feBlend mode="normal" in2="shape" result="effect1_innerShadow_1020_299"/>
</filter>
</defs>
</svg>
