<svg width="90" height="80" viewBox="0 0 90 80" fill="none" xmlns="http://www.w3.org/2000/svg">
<g filter="url(#filter0_i_1028_524)">
<path d="M1.334 60V58.782L2.494 58.434C3.306 58.1633 3.828 57.8153 4.06 57.39C4.292 56.926 4.408 56.288 4.408 55.476V26.128C4.408 25.3547 4.292 24.7553 4.06 24.33C3.828 23.866 3.32533 23.4987 2.552 23.228L1.334 22.88V21.662H15.718V22.88L14.616 23.228C13.8813 23.4987 13.3787 23.866 13.108 24.33C12.876 24.794 12.76 25.432 12.76 26.244V58.26H21.286C22.6007 58.26 23.5867 57.9313 24.244 57.274C24.9013 56.6167 25.52 55.6693 26.1 54.432L28.246 49.618H29.87L29.29 60H1.334ZM41.6259 60.232L29.2139 26.012C28.7112 24.5813 27.7252 23.6533 26.2559 23.228L24.9799 22.88V21.662H41.0459V22.822L39.4219 23.228C38.5325 23.46 38.0299 23.866 37.9139 24.446C37.8365 25.026 37.9525 25.7607 38.2619 26.65L46.6139 51.416L55.0239 26.65C55.3332 25.7607 55.4685 25.026 55.4299 24.446C55.4299 23.866 54.9852 23.46 54.0959 23.228L52.7039 22.822V21.662H61.3459V22.88L59.8959 23.228C59.0839 23.4213 58.5039 23.75 58.1559 24.214C57.8465 24.678 57.5565 25.316 57.2859 26.128L45.7439 60.232H41.6259Z" fill="#CFB5A5"/>
</g>
<defs>
<filter id="filter0_i_1028_524" x="1.334" y="21.662" width="61.5119" height="40.07" filterUnits="userSpaceOnUse" color-interpolation-filters="sRGB">
<feFlood flood-opacity="0" result="BackgroundImageFix"/>
<feBlend mode="normal" in="SourceGraphic" in2="BackgroundImageFix" result="shape"/>
<feColorMatrix in="SourceAlpha" type="matrix" values="0 0 0 0 0 0 0 0 0 0 0 0 0 0 0 0 0 0 127 0" result="hardAlpha"/>
<feOffset dx="1.5" dy="1.5"/>
<feGaussianBlur stdDeviation="0.75"/>
<feComposite in2="hardAlpha" operator="arithmetic" k2="-1" k3="1"/>
<feColorMatrix type="matrix" values="0 0 0 0 0 0 0 0 0 0 0 0 0 0 0 0 0 0 0.25 0"/>
<feBlend mode="normal" in2="shape" result="effect1_innerShadow_1028_524"/>
</filter>
</defs>
</svg>
