<svg width="130" height="66" viewBox="0 0 130 66" fill="none" xmlns="http://www.w3.org/2000/svg">
<path d="M48.5161 60.2299C46.8511 60.2299 45.6694 59.3275 45.6372 58.017H47.0444C47.0874 58.64 47.7104 59.0482 48.5161 59.0482C49.3755 59.0482 49.9878 58.5756 49.9878 57.8881C49.9878 57.1898 49.3862 56.6849 48.3765 56.6849H47.6782V55.6107H48.3765C49.2036 55.6107 49.7837 55.1488 49.7729 54.472C49.7837 53.8168 49.2896 53.3763 48.5269 53.3763C47.7964 53.3763 47.1626 53.7845 47.1411 54.4398H45.7983C45.8306 53.1293 47.0122 52.2377 48.5376 52.2377C50.1167 52.2377 51.1372 53.2045 51.1265 54.3969C51.1372 55.267 50.5571 55.9008 49.7085 56.0726V56.1371C50.8042 56.2875 51.4272 56.9857 51.4165 57.9633C51.4272 59.2738 50.2026 60.2299 48.5161 60.2299ZM55.3589 60.1224H52.7163V52.3451H55.4019C57.7222 52.3451 59.1294 53.806 59.1294 56.223C59.1294 58.6508 57.7222 60.1224 55.3589 60.1224ZM54.1128 58.9086H55.2837C56.9058 58.9086 57.7329 58.017 57.7329 56.223C57.7329 54.4398 56.9058 53.559 55.3267 53.559H54.1128V58.9086ZM62.9751 52.3451H64.6938L67.0034 57.9955H67.1001L69.4097 52.3451H71.1284V60.1224H69.7856V54.7728H69.7104L67.5513 60.101H66.5522L64.3931 54.7513H64.3286V60.1224H62.9751V52.3451ZM72.5679 60.1224V52.3451H77.5522V53.516H73.9644V55.6429H77.2085V56.8138H73.9644V60.1224H72.5679ZM78.7339 60.1224V52.3451H81.7095C83.396 52.3451 84.2339 53.2045 84.2339 54.3646C84.2339 55.3099 83.6323 55.8363 82.8696 56.0189V56.0941C83.6968 56.1371 84.5347 56.8246 84.5347 58.0062C84.5347 59.2201 83.6646 60.1224 81.8813 60.1224H78.7339ZM81.6665 58.9515C82.687 58.9515 83.1167 58.5111 83.1167 57.8988C83.1167 57.2006 82.5688 56.6635 81.6987 56.6635H80.1304V58.9515H81.6665ZM81.5376 55.6537C82.2788 55.6537 82.8374 55.224 82.8374 54.5365C82.8374 53.9349 82.4077 53.5052 81.5698 53.5052H80.1304V55.6537H81.5376Z" fill="#C5D700"/>
<path d="M77.5 21.5996C78.3283 21.5996 78.9998 22.2714 79 23.0996V42.5C79 43.3284 78.3284 44 77.5 44H58.0996C57.2714 43.9998 56.5996 43.3283 56.5996 42.5V41H74C75.1046 41 76 40.1046 76 39V21.5996H77.5Z" fill="#C5D700"/>
<rect x="52" y="17" width="22" height="22" rx="1.5" fill="#C5D700"/>
</svg>
