<svg width="130" height="66" viewBox="0 0 130 66" fill="none" xmlns="http://www.w3.org/2000/svg">
<path d="M44.8638 52.3451H46.5825L48.8921 57.9955H48.9888L51.2983 52.3451H53.0171V60.1224H51.6743V54.7728H51.5991L49.4399 60.101H48.4409L46.2817 54.7513H46.2173V60.1224H44.8638V52.3451ZM54.4565 60.1224V52.3451H59.4409V53.516H55.853V55.6429H59.0972V56.8138H55.853V60.1224H54.4565ZM60.6226 60.1224V52.3451H63.5981C65.2847 52.3451 66.1226 53.2045 66.1226 54.3646C66.1226 55.3099 65.521 55.8363 64.7583 56.0189V56.0941C65.5854 56.1371 66.4233 56.8246 66.4233 58.0062C66.4233 59.2201 65.5532 60.1224 63.77 60.1224H60.6226ZM63.5552 58.9515C64.5757 58.9515 65.0054 58.5111 65.0054 57.8988C65.0054 57.2006 64.4575 56.6635 63.5874 56.6635H62.019V58.9515H63.5552ZM63.4263 55.6537C64.1675 55.6537 64.7261 55.224 64.7261 54.5365C64.7261 53.9349 64.2964 53.5052 63.4585 53.5052H62.019V55.6537H63.4263ZM76.0376 58.9086V59.8754H67.1646V58.9086H70.9673V56.6635H72.1489V58.9086H76.0376ZM72.1812 52.6674C72.1812 54.139 73.6528 55.5892 75.6938 55.9115L75.1782 56.8998C73.5347 56.5883 72.1919 55.6483 71.5474 54.3754C70.9028 55.6429 69.5708 56.599 67.938 56.8998L67.4224 55.9115C69.4526 55.5892 70.9028 54.1283 70.9136 52.6674V51.9584H72.1812V52.6674ZM85.0073 51.3676V61.0785H83.8579V56.0941H82.8159V60.6273H81.6987V51.6254H82.8159V55.1273H83.8579V51.3676H85.0073ZM80.8716 52.5922C80.8716 55.2133 80.0444 57.4691 77.2837 59.0482L76.5962 58.2211C78.6641 57.0233 79.5396 55.4872 79.7114 53.5482H77.0474V52.5922H80.8716Z" fill="#C5D700"/>
<path d="M59.5946 17.9189L57 15.3243" stroke="#C5D700" stroke-width="2" stroke-linecap="round" stroke-linejoin="round"/>
<path d="M65.6487 17.0541V11" stroke="#C5D700" stroke-width="2" stroke-linecap="round" stroke-linejoin="round"/>
<path d="M70.8379 17.9189L72.5676 14.4595" stroke="#C5D700" stroke-width="2" stroke-linecap="round" stroke-linejoin="round"/>
<path d="M68.516 21.6771C66.516 20.8771 65.016 20.6771 63.016 21.6771L50.3168 27.6033L48.016 28.6771C46.516 29.1771 46.8149 30.2267 48.016 30.6771C52.0159 32.1771 59.0518 34.9067 62.016 36.1771C65.516 37.6771 67.1994 37.1863 69.016 36.1771C73.516 33.6771 80.5159 30.1771 82.0159 29.1771C83.5159 28.1771 82.8494 26.9896 82.016 26.6771C78.016 25.1771 70.516 22.4771 68.516 21.6771Z" fill="#C5D700" stroke="#C5D700"/>
<path d="M83.0066 33.6771C83.0066 34.5789 83.0065 35.1768 82.2566 35.8538C81.5066 36.5309 73.2566 40.8538 68.7566 43.3538C66.94 44.3631 65.2566 44.8538 61.7566 43.3538C58.7923 42.0834 51.4997 38.6669 47.9998 37.5003C47.1247 37.0628 47.0158 36.6249 47.0066 35.971V33.679C47.3259 33.7984 58.8333 38.101 61.7566 39.3538C65.2566 40.8538 66.94 40.3631 68.7566 39.3538C72.6657 37.1821 80.9091 32.8577 83.0066 31.7591V33.6771Z" fill="#C5D700"/>
</svg>
