<svg width="130" height="66" viewBox="0 0 130 66" fill="none" xmlns="http://www.w3.org/2000/svg">
<path d="M54.4404 51.3783V58.5004H53.248V55.2347H51.3789V54.2465H53.248V51.3783H54.4404ZM51.4434 52.1088C51.4434 54.6654 49.7461 56.5883 46.9424 57.4799L46.4375 56.5238C48.5322 55.8578 49.9126 54.6224 50.1436 53.0863H46.9424V52.1088H51.4434ZM54.6875 59.9183V60.8851H48.1133V57.7806H49.3271V59.9183H54.6875ZM59.3066 53.4408C59.3066 54.5043 60.0908 55.5248 61.6162 55.9437L61.0684 56.889C59.9565 56.5829 59.167 55.9222 58.7266 55.0951C58.3022 56.035 57.4966 56.7762 56.3525 57.1254L55.7725 56.1908C57.2979 55.7504 58.1143 54.6332 58.1143 53.4408V53.3978H56.084V52.4525H58.1143V51.3246H59.3174V52.4525H61.3369V53.3978H59.3066V53.4408ZM63.4746 51.3676V53.7416H64.8281V54.7191H63.4746V57.2543H62.2822V51.3676H63.4746ZM60.3164 57.4584C62.3359 57.4584 63.5605 58.1136 63.5713 59.2631C63.5605 60.4017 62.3359 61.057 60.3164 61.057C58.2754 61.057 57.0293 60.4017 57.0293 59.2631C57.0293 58.1136 58.2754 57.4584 60.3164 57.4584ZM60.3164 58.3822C58.9736 58.3822 58.2217 58.6722 58.2217 59.2631C58.2217 59.8431 58.9736 60.1439 60.3164 60.1439C61.6484 60.1439 62.3896 59.8431 62.3896 59.2631C62.3896 58.6722 61.6484 58.3822 60.3164 58.3822ZM73.4326 51.3676V61.0785H72.2295V51.3676H73.4326ZM70.5322 52.3988C70.5322 55.2885 69.415 57.7484 66.0098 59.3597L65.3867 58.4037C67.9272 57.1952 69.1089 55.5516 69.3184 53.3441H65.8809V52.3988H70.5322ZM77.5254 51.7972C78.7822 51.7865 79.7705 52.5116 80.0176 53.5804H81.7686V51.3676H82.9609V56.5775H81.7686V54.5472H80.0283C79.7866 55.6376 78.7876 56.3734 77.5254 56.3734C76.0322 56.3734 74.958 55.4174 74.958 54.0746C74.958 52.7533 76.0322 51.7865 77.5254 51.7972ZM77.5254 52.7963C76.6875 52.7963 76.0967 53.2904 76.0967 54.0746C76.0967 54.848 76.6875 55.3636 77.5254 55.3636C78.3418 55.3636 78.9219 54.848 78.9326 54.0746C78.9219 53.2904 78.3418 52.7963 77.5254 52.7963ZM77.7402 57.0287V58.0599H81.7686V57.0287H82.9609V60.9603H76.5586V57.0287H77.7402ZM77.7402 59.9935H81.7686V58.9838H77.7402V59.9935Z" fill="#C5D700"/>
<path d="M68.8956 28.3907L66.7742 30.4992L59.4998 23.2309L52.2306 30.4992L59.4998 37.7691L62.8864 34.389L58.9934 30.4992L61.0939 28.4028L70.4984 37.7691L77.7711 30.4992L70.4984 23.2309L68.015 25.7116L65.9006 23.5944L70.4984 19L82 30.4992L70.4984 42L64.9991 36.5044L59.4998 42L48 30.4992L59.4998 19L68.8956 28.3907Z" fill="#C5D700"/>
</svg>
