<svg width="74" height="80" viewBox="0 0 74 80" fill="none" xmlns="http://www.w3.org/2000/svg">
<g filter="url(#filter0_i_184_485)">
<path d="M2.03 60V58.782L3.712 58.318C4.44667 58.1247 4.94933 57.7573 5.22 57.216C5.52933 56.6747 5.684 56.0173 5.684 55.244V27.172C5.336 26.4373 5.02667 25.896 4.756 25.548C4.524 25.1613 4.27267 24.8327 4.002 24.562C3.73133 24.2913 3.364 23.982 2.9 23.634L1.856 22.88V21.662H11.774L31.03 47.994V26.476C31.03 25.7027 30.8947 25.026 30.624 24.446C30.392 23.866 29.8893 23.4793 29.116 23.286L27.376 22.88V21.662H36.018V22.88L34.568 23.286C33.8333 23.518 33.3693 23.924 33.176 24.504C33.0213 25.0453 32.944 25.7027 32.944 26.476V60.232H29.696L7.598 29.84V55.186C7.598 55.998 7.714 56.6747 7.946 57.216C8.178 57.7573 8.66133 58.1247 9.396 58.318L10.962 58.782V60H2.03ZM51.1841 60.986C49.0574 60.986 46.8921 60.7153 44.6881 60.174C42.5228 59.6713 40.7054 58.9947 39.2361 58.144L39.5841 50.082H41.2661L43.0641 54.084C43.6054 55.2053 44.1661 56.1333 44.7461 56.868C45.3261 57.6027 46.0994 58.1633 47.0661 58.55C47.7234 58.8207 48.3421 59.014 48.9221 59.13C49.5408 59.2073 50.2174 59.246 50.9521 59.246C53.3108 59.246 55.1668 58.6467 56.5201 57.448C57.9121 56.2107 58.6081 54.5867 58.6081 52.576C58.6081 50.7587 58.1248 49.328 57.1581 48.284C56.2301 47.24 54.7221 46.2347 52.6341 45.268L50.2561 44.224C47.0081 42.7933 44.4368 41.1307 42.5421 39.236C40.6861 37.3413 39.7581 34.828 39.7581 31.696C39.7581 29.376 40.3381 27.404 41.4981 25.78C42.6968 24.1173 44.3401 22.8413 46.4281 21.952C48.5161 21.0627 50.9521 20.618 53.7361 20.618C55.7854 20.618 57.6994 20.8887 59.4781 21.43C61.2954 21.9713 62.8808 22.706 64.2341 23.634L63.8281 30.826H62.1461L60.0001 26.476C59.3814 25.2 58.7821 24.2913 58.2021 23.75C57.6608 23.17 56.9841 22.8027 56.1721 22.648C55.7081 22.5707 55.3021 22.5127 54.9541 22.474C54.6448 22.4353 54.2194 22.416 53.6781 22.416C51.7834 22.416 50.1401 22.9767 48.7481 24.098C47.3948 25.1807 46.7181 26.6887 46.7181 28.622C46.7181 30.478 47.2401 31.986 48.2841 33.146C49.3281 34.306 50.8361 35.3307 52.8081 36.22L55.4181 37.322C59.1688 38.946 61.8561 40.686 63.4801 42.542C65.1041 44.3593 65.9161 46.6987 65.9161 49.56C65.9161 52.9627 64.6208 55.7273 62.0301 57.854C59.4781 59.942 55.8628 60.986 51.1841 60.986Z" fill="#9F9F9F"/>
</g>
<defs>
<filter id="filter0_i_184_485" x="1.85596" y="20.6179" width="65.5602" height="41.8682" filterUnits="userSpaceOnUse" color-interpolation-filters="sRGB">
<feFlood flood-opacity="0" result="BackgroundImageFix"/>
<feBlend mode="normal" in="SourceGraphic" in2="BackgroundImageFix" result="shape"/>
<feColorMatrix in="SourceAlpha" type="matrix" values="0 0 0 0 0 0 0 0 0 0 0 0 0 0 0 0 0 0 127 0" result="hardAlpha"/>
<feOffset dx="1.5" dy="1.5"/>
<feGaussianBlur stdDeviation="0.75"/>
<feComposite in2="hardAlpha" operator="arithmetic" k2="-1" k3="1"/>
<feColorMatrix type="matrix" values="0 0 0 0 0 0 0 0 0 0 0 0 0 0 0 0 0 0 0.25 0"/>
<feBlend mode="normal" in2="shape" result="effect1_innerShadow_184_485"/>
</filter>
</defs>
</svg>
