<svg width="75" height="73" viewBox="0 0 75 73" fill="none" xmlns="http://www.w3.org/2000/svg">
<g filter="url(#filter0_i_184_203)">
<path d="M1.113 55V53.834L2.173 53.516C2.84433 53.304 3.30367 52.9683 3.551 52.509C3.79833 52.0143 3.922 51.3783 3.922 50.601V24.366C3.922 23.6593 3.83367 23.094 3.657 22.67C3.48033 22.2107 3.03867 21.8573 2.332 21.61L1.113 21.133V19.967H11.236L21.2 45.884L30.581 19.967H40.916V21.133L40.068 21.398C39.3967 21.61 38.9373 21.9457 38.69 22.405C38.4427 22.829 38.319 23.3943 38.319 24.101C38.2837 26.1503 38.266 28.1997 38.266 30.249C38.266 32.263 38.266 34.3123 38.266 36.397V38.57C38.266 40.6193 38.266 42.6687 38.266 44.718C38.266 46.7673 38.2837 48.799 38.319 50.813C38.319 51.555 38.4073 52.1203 38.584 52.509C38.7607 52.8977 39.1847 53.2157 39.856 53.463L40.916 53.834V55H28.037V53.834L29.203 53.463C29.8743 53.2157 30.2807 52.8977 30.422 52.509C30.5987 52.085 30.687 51.5197 30.687 50.813V39.312L30.793 25.108L19.981 55H17.013L5.618 25.426L5.83 37.51V50.654C5.83 51.4313 5.936 52.0497 6.148 52.509C6.36 52.9683 6.80167 53.2863 7.473 53.463L8.533 53.834V55H1.113ZM50.5049 55V53.887L52.6249 53.463C54.1089 53.145 54.8509 52.2793 54.8509 50.866V36.397C54.8509 33.9237 54.8509 31.4503 54.8509 28.977C54.8509 26.5037 54.8332 24.0303 54.7979 21.557H50.6109C49.4802 21.557 48.6499 21.8573 48.1199 22.458C47.5899 23.0587 47.0599 23.9067 46.5299 25.002L44.6749 28.924H43.1909L43.4559 19.967H73.8779L74.1429 28.924H72.6589L70.8039 25.002C70.2739 23.9067 69.7439 23.0587 69.2139 22.458C68.6839 21.8573 67.8535 21.557 66.7229 21.557H62.4829V50.866C62.4829 52.3147 63.2249 53.1803 64.7089 53.463L66.8819 53.887V55H50.5049Z" fill="#9F9F9F"/>
</g>
<defs>
<filter id="filter0_i_184_203" x="1.11304" y="19.967" width="74.5298" height="36.533" filterUnits="userSpaceOnUse" color-interpolation-filters="sRGB">
<feFlood flood-opacity="0" result="BackgroundImageFix"/>
<feBlend mode="normal" in="SourceGraphic" in2="BackgroundImageFix" result="shape"/>
<feColorMatrix in="SourceAlpha" type="matrix" values="0 0 0 0 0 0 0 0 0 0 0 0 0 0 0 0 0 0 127 0" result="hardAlpha"/>
<feOffset dx="1.5" dy="1.5"/>
<feGaussianBlur stdDeviation="0.75"/>
<feComposite in2="hardAlpha" operator="arithmetic" k2="-1" k3="1"/>
<feColorMatrix type="matrix" values="0 0 0 0 0 0 0 0 0 0 0 0 0 0 0 0 0 0 0.25 0"/>
<feBlend mode="normal" in2="shape" result="effect1_innerShadow_184_203"/>
</filter>
</defs>
</svg>
