<svg width="90" height="80" viewBox="0 0 90 80" fill="none" xmlns="http://www.w3.org/2000/svg">
<g filter="url(#filter0_i_1028_566)">
<path d="M1.334 60V58.782L2.494 58.492C3.26733 58.26 3.77 57.912 4.002 57.448C4.234 56.984 4.35 56.346 4.35 55.534C4.38867 53.33 4.408 51.1067 4.408 48.864C4.408 46.5827 4.408 44.3013 4.408 42.02V39.642C4.408 37.3993 4.408 35.1567 4.408 32.914C4.408 30.6713 4.38867 28.4287 4.35 26.186C4.35 25.374 4.21467 24.7553 3.944 24.33C3.712 23.866 3.20933 23.4987 2.436 23.228L1.334 22.88V21.662H15.312C20.9573 21.662 25.056 22.7253 27.608 24.852C30.1987 26.94 31.494 29.7047 31.494 33.146C31.494 35.3113 30.9527 37.322 29.87 39.178C28.826 40.9953 27.086 42.4453 24.65 43.528C22.214 44.6107 18.9273 45.152 14.79 45.152H12.702C12.702 46.776 12.702 48.458 12.702 50.198C12.702 51.8993 12.7213 53.6393 12.76 55.418C12.76 57.0033 13.4753 57.97 14.906 58.318L16.646 58.782V60H1.334ZM12.702 43.47H15.138C17.0713 43.47 18.6373 43.18 19.836 42.6C21.0733 41.9813 21.982 40.9373 22.562 39.468C23.1807 37.9987 23.49 35.9687 23.49 33.378C23.49 30.7873 23.1613 28.7767 22.504 27.346C21.8853 25.8767 20.938 24.852 19.662 24.272C18.386 23.6533 16.8007 23.344 14.906 23.344H12.76C12.7213 26.012 12.702 28.7187 12.702 31.464C12.702 34.1707 12.702 36.8967 12.702 39.642V43.47ZM33.4465 60V58.724L34.6065 58.376C35.3412 58.144 35.8438 57.7767 36.1145 57.274C36.3852 56.7327 36.5205 56.0367 36.5205 55.186V26.476C36.5205 25.7027 36.4238 25.084 36.2305 24.62C36.0372 24.1173 35.5538 23.7307 34.7805 23.46L33.4465 22.938V21.662H44.5245L55.4285 50.024L65.6945 21.662H77.0045V22.938L76.0765 23.228C75.3419 23.46 74.8392 23.8273 74.5685 24.33C74.2979 24.794 74.1625 25.4127 74.1625 26.186C74.1239 28.4287 74.1045 30.6713 74.1045 32.914C74.1045 35.118 74.1045 37.3607 74.1045 39.642V42.02C74.1045 44.2627 74.1045 46.5053 74.1045 48.748C74.1045 50.9907 74.1239 53.214 74.1625 55.418C74.1625 56.23 74.2592 56.8487 74.4525 57.274C74.6459 57.6993 75.1099 58.0473 75.8445 58.318L77.0045 58.724V60H62.9105V58.724L64.1865 58.318C64.9212 58.0473 65.3659 57.6993 65.5205 57.274C65.7139 56.81 65.8105 56.1913 65.8105 55.418V42.832L65.9265 27.288L54.0945 60H50.8465L38.3765 27.636L38.6085 40.86V55.244C38.6085 56.0947 38.7245 56.7713 38.9565 57.274C39.1885 57.7767 39.6718 58.1247 40.4065 58.318L41.5665 58.724V60H33.4465Z" fill="#7F8E9F"/>
</g>
<defs>
<filter id="filter0_i_1028_566" x="1.334" y="21.6621" width="77.1705" height="39.8379" filterUnits="userSpaceOnUse" color-interpolation-filters="sRGB">
<feFlood flood-opacity="0" result="BackgroundImageFix"/>
<feBlend mode="normal" in="SourceGraphic" in2="BackgroundImageFix" result="shape"/>
<feColorMatrix in="SourceAlpha" type="matrix" values="0 0 0 0 0 0 0 0 0 0 0 0 0 0 0 0 0 0 127 0" result="hardAlpha"/>
<feOffset dx="1.5" dy="1.5"/>
<feGaussianBlur stdDeviation="0.75"/>
<feComposite in2="hardAlpha" operator="arithmetic" k2="-1" k3="1"/>
<feColorMatrix type="matrix" values="0 0 0 0 0 0 0 0 0 0 0 0 0 0 0 0 0 0 0.25 0"/>
<feBlend mode="normal" in2="shape" result="effect1_innerShadow_1028_566"/>
</filter>
</defs>
</svg>
