<svg width="82" height="89" viewBox="0 0 82 89" fill="none" xmlns="http://www.w3.org/2000/svg">
<path d="M13.3898 68.105C11.0065 68.105 8.57981 67.8017 6.10981 67.195C3.68314 66.6317 1.64647 65.8733 -0.000195235 64.92L0.389805 55.885H2.27481L4.2898 60.37C4.89647 61.6267 5.5248 62.6667 6.1748 63.49C6.8248 64.3133 7.69147 64.9417 8.77481 65.375C9.51147 65.6783 10.2048 65.895 10.8548 66.025C11.5481 66.1117 12.3065 66.155 13.1298 66.155C15.7731 66.155 17.8531 65.4833 19.3698 64.14C20.9298 62.7533 21.7098 60.9333 21.7098 58.68C21.7098 56.6433 21.1681 55.04 20.0848 53.87C19.0448 52.7 17.3548 51.5733 15.0148 50.49L12.3498 49.32C8.70981 47.7167 5.82814 45.8533 3.70481 43.73C1.6248 41.6067 0.584805 38.79 0.584805 35.28C0.584805 32.68 1.2348 30.47 2.53481 28.65C3.87814 26.7867 5.71981 25.3567 8.05981 24.36C10.3998 23.3633 13.1298 22.865 16.2498 22.865C18.5465 22.865 20.6915 23.1683 22.6848 23.775C24.7215 24.3817 26.4981 25.205 28.0148 26.245L27.5598 34.305H25.6748L23.2698 29.43C22.5765 28 21.9048 26.9817 21.2548 26.375C20.6481 25.725 19.8898 25.3133 18.9798 25.14C18.4598 25.0533 18.0048 24.9883 17.6148 24.945C17.2681 24.9017 16.7915 24.88 16.1848 24.88C14.0615 24.88 12.2198 25.5083 10.6598 26.765C9.14314 27.9783 8.38481 29.6683 8.38481 31.835C8.38481 33.915 8.96981 35.605 10.1398 36.905C11.3098 38.205 12.9998 39.3533 15.2098 40.35L18.1348 41.585C22.3381 43.405 25.3498 45.355 27.1698 47.435C28.9898 49.4717 29.8998 52.0933 29.8998 55.3C29.8998 59.1133 28.4481 62.2117 25.5448 64.595C22.6848 66.935 18.6331 68.105 13.3898 68.105ZM32.8035 67V65.57L34.1035 65.18C34.9268 64.92 35.4901 64.5083 35.7935 63.945C36.0968 63.3383 36.2485 62.5583 36.2485 61.605V29.43C36.2485 28.5633 36.1401 27.87 35.9235 27.35C35.7068 26.7867 35.1651 26.3533 34.2985 26.05L32.8035 25.465V24.035H45.2185L57.4385 55.82L68.9435 24.035H81.6185V25.465L80.5785 25.79C79.7551 26.05 79.1918 26.4617 78.8885 27.025C78.5851 27.545 78.4335 28.2383 78.4335 29.105C78.3901 31.6183 78.3685 34.1317 78.3685 36.645C78.3685 39.115 78.3685 41.6283 78.3685 44.185V46.85C78.3685 49.3633 78.3685 51.8767 78.3685 54.39C78.3685 56.9033 78.3901 59.395 78.4335 61.865C78.4335 62.775 78.5418 63.4683 78.7585 63.945C78.9751 64.4217 79.4951 64.8117 80.3185 65.115L81.6185 65.57V67H65.8235V65.57L67.2535 65.115C68.0768 64.8117 68.5751 64.4217 68.7485 63.945C68.9651 63.425 69.0735 62.7317 69.0735 61.865V47.76L69.2035 30.34L55.9435 67H52.3035L38.3285 30.73L38.5885 45.55V61.67C38.5885 62.6233 38.7185 63.3817 38.9785 63.945C39.2385 64.5083 39.7801 64.8983 40.6035 65.115L41.9035 65.57V67H32.8035Z" fill="#7F8E9F"/>
</svg>
