<svg width="90" height="80" viewBox="0 0 90 80" fill="none" xmlns="http://www.w3.org/2000/svg">
<g filter="url(#filter0_i_1028_558)">
<path d="M13.688 60.986C11.5613 60.986 9.396 60.7153 7.192 60.174C5.02667 59.6713 3.20933 58.9947 1.74 58.144L2.088 50.082H3.77L5.568 54.084C6.10933 55.2053 6.67 56.1333 7.25 56.868C7.83 57.6027 8.60333 58.1633 9.57 58.55C10.2273 58.8207 10.846 59.014 11.426 59.13C12.0447 59.2073 12.7213 59.246 13.456 59.246C15.8147 59.246 17.6707 58.6467 19.024 57.448C20.416 56.2107 21.112 54.5867 21.112 52.576C21.112 50.7587 20.6287 49.328 19.662 48.284C18.734 47.24 17.226 46.2347 15.138 45.268L12.76 44.224C9.512 42.7933 6.94067 41.1307 5.046 39.236C3.19 37.3413 2.262 34.828 2.262 31.696C2.262 29.376 2.842 27.404 4.002 25.78C5.20067 24.1173 6.844 22.8413 8.932 21.952C11.02 21.0627 13.456 20.618 16.24 20.618C18.2893 20.618 20.2033 20.8887 21.982 21.43C23.7993 21.9713 25.3847 22.706 26.738 23.634L26.332 30.826H24.65L22.504 26.476C21.8853 25.2 21.286 24.2913 20.706 23.75C20.1647 23.17 19.488 22.8027 18.676 22.648C18.212 22.5707 17.806 22.5127 17.458 22.474C17.1487 22.4353 16.7233 22.416 16.182 22.416C14.2873 22.416 12.644 22.9767 11.252 24.098C9.89867 25.1807 9.222 26.6887 9.222 28.622C9.222 30.478 9.744 31.986 10.788 33.146C11.832 34.306 13.34 35.3307 15.312 36.22L17.922 37.322C21.6727 38.946 24.36 40.686 25.984 42.542C27.608 44.3593 28.42 46.6987 28.42 49.56C28.42 52.9627 27.1247 55.7273 24.534 57.854C21.982 59.942 18.3667 60.986 13.688 60.986ZM38.3906 60V58.782L40.7106 58.318C42.3346 57.97 43.1466 57.0227 43.1466 55.476V39.642C43.1466 36.9353 43.1466 34.2287 43.1466 31.522C43.1466 28.8153 43.1272 26.1087 43.0886 23.402H38.5066C37.2692 23.402 36.3606 23.7307 35.7806 24.388C35.2006 25.0453 34.6206 25.9733 34.0406 27.172L32.0106 31.464H30.3866L30.6766 21.662H63.9686L64.2586 31.464H62.6346L60.6046 27.172C60.0246 25.9733 59.4446 25.0453 58.8646 24.388C58.2846 23.7307 57.3759 23.402 56.1386 23.402H51.4986V55.476C51.4986 57.0613 52.3106 58.0087 53.9346 58.318L56.3126 58.782V60H38.3906Z" fill="#7F8E9F"/>
</g>
<defs>
<filter id="filter0_i_1028_558" x="1.74001" y="20.6179" width="64.0186" height="41.8682" filterUnits="userSpaceOnUse" color-interpolation-filters="sRGB">
<feFlood flood-opacity="0" result="BackgroundImageFix"/>
<feBlend mode="normal" in="SourceGraphic" in2="BackgroundImageFix" result="shape"/>
<feColorMatrix in="SourceAlpha" type="matrix" values="0 0 0 0 0 0 0 0 0 0 0 0 0 0 0 0 0 0 127 0" result="hardAlpha"/>
<feOffset dx="1.5" dy="1.5"/>
<feGaussianBlur stdDeviation="0.75"/>
<feComposite in2="hardAlpha" operator="arithmetic" k2="-1" k3="1"/>
<feColorMatrix type="matrix" values="0 0 0 0 0 0 0 0 0 0 0 0 0 0 0 0 0 0 0.25 0"/>
<feBlend mode="normal" in2="shape" result="effect1_innerShadow_1028_558"/>
</filter>
</defs>
</svg>
