<svg width="90" height="80" viewBox="0 0 90 80" fill="none" xmlns="http://www.w3.org/2000/svg">
<g filter="url(#filter0_i_1028_562)">
<path d="M9.164 60V58.782L11.484 58.318C13.108 57.97 13.92 57.0227 13.92 55.476V39.642C13.92 36.9353 13.92 34.2287 13.92 31.522C13.92 28.8153 13.9007 26.1087 13.862 23.402H9.28C8.04267 23.402 7.134 23.7307 6.554 24.388C5.974 25.0453 5.394 25.9733 4.814 27.172L2.784 31.464H1.16L1.45 21.662H34.742L35.032 31.464H33.408L31.378 27.172C30.798 25.9733 30.218 25.0453 29.638 24.388C29.058 23.7307 28.1493 23.402 26.912 23.402H22.272V55.476C22.272 57.0613 23.084 58.0087 24.708 58.318L27.086 58.782V60H9.164ZM37.5274 60V58.782L38.6874 58.434C39.4607 58.1633 39.9634 57.8153 40.1954 57.39C40.466 56.926 40.6014 56.288 40.6014 55.476V26.186C40.6014 25.374 40.466 24.7553 40.1954 24.33C39.9634 23.866 39.4607 23.4987 38.6874 23.228L37.5274 22.88V21.662H52.0274V22.88L50.8674 23.228C50.1327 23.4987 49.63 23.866 49.3594 24.33C49.0887 24.7553 48.9534 25.374 48.9534 26.186V55.476C48.9534 56.288 49.0887 56.926 49.3594 57.39C49.63 57.8153 50.1327 58.1633 50.8674 58.434L52.0274 58.782V60H37.5274Z" fill="#B8C1C8"/>
</g>
<defs>
<filter id="filter0_i_1028_562" x="1.16" y="21.6621" width="52.3674" height="39.8379" filterUnits="userSpaceOnUse" color-interpolation-filters="sRGB">
<feFlood flood-opacity="0" result="BackgroundImageFix"/>
<feBlend mode="normal" in="SourceGraphic" in2="BackgroundImageFix" result="shape"/>
<feColorMatrix in="SourceAlpha" type="matrix" values="0 0 0 0 0 0 0 0 0 0 0 0 0 0 0 0 0 0 127 0" result="hardAlpha"/>
<feOffset dx="1.5" dy="1.5"/>
<feGaussianBlur stdDeviation="0.75"/>
<feComposite in2="hardAlpha" operator="arithmetic" k2="-1" k3="1"/>
<feColorMatrix type="matrix" values="0 0 0 0 0 0 0 0 0 0 0 0 0 0 0 0 0 0 0.25 0"/>
<feBlend mode="normal" in2="shape" result="effect1_innerShadow_1028_562"/>
</filter>
</defs>
</svg>
