<svg width="76" height="73" viewBox="0 0 76 73" fill="none" xmlns="http://www.w3.org/2000/svg">
<g filter="url(#filter0_i_191_938)">
<path d="M8.374 55V53.887L10.494 53.463C11.978 53.145 12.72 52.2793 12.72 50.866V36.397C12.72 33.9237 12.72 31.4503 12.72 28.977C12.72 26.5037 12.7023 24.0303 12.667 21.557H8.48C7.34933 21.557 6.519 21.8573 5.989 22.458C5.459 23.0587 4.929 23.9067 4.399 25.002L2.544 28.924H1.06L1.325 19.967H31.747L32.012 28.924H30.528L28.673 25.002C28.143 23.9067 27.613 23.0587 27.083 22.458C26.553 21.8573 25.7227 21.557 24.592 21.557H20.352V50.866C20.352 52.3147 21.094 53.1803 22.578 53.463L24.751 53.887V55H8.374ZM45.3225 55.901C43.3791 55.901 41.4005 55.6537 39.3865 55.159C37.4078 54.6997 35.7471 54.0813 34.4045 53.304L34.7225 45.937H36.2595L37.9025 49.594C38.3971 50.6187 38.9095 51.4667 39.4395 52.138C39.9695 52.8093 40.6761 53.3217 41.5595 53.675C42.1601 53.9223 42.7255 54.099 43.2555 54.205C43.8208 54.2757 44.4391 54.311 45.1105 54.311C47.2658 54.311 48.9618 53.7633 50.1985 52.668C51.4705 51.5373 52.1065 50.0533 52.1065 48.216C52.1065 46.5553 51.6648 45.248 50.7815 44.294C49.9335 43.34 48.5555 42.4213 46.6475 41.538L44.4745 40.584C41.5065 39.2767 39.1568 37.7573 37.4255 36.026C35.7295 34.2947 34.8815 31.998 34.8815 29.136C34.8815 27.016 35.4115 25.214 36.4715 23.73C37.5668 22.2107 39.0685 21.0447 40.9765 20.232C42.8845 19.4193 45.1105 19.013 47.6545 19.013C49.5271 19.013 51.2761 19.2603 52.9015 19.755C54.5621 20.2497 56.0108 20.921 57.2475 21.769L56.8765 28.341H55.3395L53.3785 24.366C52.8131 23.2 52.2655 22.3697 51.7355 21.875C51.2408 21.345 50.6225 21.0093 49.8805 20.868C49.4565 20.7973 49.0855 20.7443 48.7675 20.709C48.4848 20.6737 48.0961 20.656 47.6015 20.656C45.8701 20.656 44.3685 21.1683 43.0965 22.193C41.8598 23.1823 41.2415 24.5603 41.2415 26.327C41.2415 28.023 41.7185 29.401 42.6725 30.461C43.6265 31.521 45.0045 32.4573 46.8065 33.27L49.1915 34.277C52.6188 35.761 55.0745 37.351 56.5585 39.047C58.0425 40.7077 58.7845 42.8453 58.7845 45.46C58.7845 48.5693 57.6008 51.0957 55.2335 53.039C52.9015 54.947 49.5978 55.901 45.3225 55.901Z" fill="#816558"/>
</g>
<defs>
<filter id="filter0_i_191_938" x="1.06006" y="19.013" width="59.2244" height="38.388" filterUnits="userSpaceOnUse" color-interpolation-filters="sRGB">
<feFlood flood-opacity="0" result="BackgroundImageFix"/>
<feBlend mode="normal" in="SourceGraphic" in2="BackgroundImageFix" result="shape"/>
<feColorMatrix in="SourceAlpha" type="matrix" values="0 0 0 0 0 0 0 0 0 0 0 0 0 0 0 0 0 0 127 0" result="hardAlpha"/>
<feOffset dx="1.5" dy="1.5"/>
<feGaussianBlur stdDeviation="0.75"/>
<feComposite in2="hardAlpha" operator="arithmetic" k2="-1" k3="1"/>
<feColorMatrix type="matrix" values="0 0 0 0 0 0 0 0 0 0 0 0 0 0 0 0 0 0 0.25 0"/>
<feBlend mode="normal" in2="shape" result="effect1_innerShadow_191_938"/>
</filter>
</defs>
</svg>
