<svg width="64" height="80" viewBox="0 0 64 80" fill="none" xmlns="http://www.w3.org/2000/svg">
<g filter="url(#filter0_i_184_199)">
<path d="M16.704 60.232L4.292 26.012C3.78933 24.5813 2.80333 23.6533 1.334 23.228L0.058 22.88V21.662H16.124V22.822L14.5 23.228C13.6107 23.46 13.108 23.866 12.992 24.446C12.9147 25.026 13.0307 25.7607 13.34 26.65L21.692 51.416L30.102 26.65C30.4113 25.7607 30.5467 25.026 30.508 24.446C30.508 23.866 30.0633 23.46 29.174 23.228L27.782 22.822V21.662H36.424V22.88L34.974 23.228C34.162 23.4213 33.582 23.75 33.234 24.214C32.9247 24.678 32.6347 25.316 32.364 26.128L20.822 60.232H16.704ZM49.2583 60.986C47.1316 60.986 44.9663 60.7153 42.7623 60.174C40.597 59.6713 38.7796 58.9947 37.3103 58.144L37.6583 50.082H39.3403L41.1383 54.084C41.6796 55.2053 42.2403 56.1333 42.8203 56.868C43.4003 57.6027 44.1736 58.1633 45.1403 58.55C45.7976 58.8207 46.4163 59.014 46.9963 59.13C47.615 59.2073 48.2916 59.246 49.0263 59.246C51.385 59.246 53.241 58.6467 54.5943 57.448C55.9863 56.2107 56.6823 54.5867 56.6823 52.576C56.6823 50.7587 56.199 49.328 55.2323 48.284C54.3043 47.24 52.7963 46.2347 50.7083 45.268L48.3303 44.224C45.0823 42.7933 42.511 41.1307 40.6163 39.236C38.7603 37.3413 37.8323 34.828 37.8323 31.696C37.8323 29.376 38.4123 27.404 39.5723 25.78C40.771 24.1173 42.4143 22.8413 44.5023 21.952C46.5903 21.0627 49.0263 20.618 51.8103 20.618C53.8596 20.618 55.7736 20.8887 57.5523 21.43C59.3696 21.9713 60.955 22.706 62.3083 23.634L61.9023 30.826H60.2203L58.0743 26.476C57.4556 25.2 56.8563 24.2913 56.2763 23.75C55.735 23.17 55.0583 22.8027 54.2463 22.648C53.7823 22.5707 53.3763 22.5127 53.0283 22.474C52.719 22.4353 52.2936 22.416 51.7523 22.416C49.8576 22.416 48.2143 22.9767 46.8223 24.098C45.469 25.1807 44.7923 26.6887 44.7923 28.622C44.7923 30.478 45.3143 31.986 46.3583 33.146C47.4023 34.306 48.9103 35.3307 50.8823 36.22L53.4923 37.322C57.243 38.946 59.9303 40.686 61.5543 42.542C63.1783 44.3593 63.9903 46.6987 63.9903 49.56C63.9903 52.9627 62.695 55.7273 60.1043 57.854C57.5523 59.942 53.937 60.986 49.2583 60.986Z" fill="#9F9F9F"/>
</g>
<defs>
<filter id="filter0_i_184_199" x="0.0581055" y="20.618" width="65.4321" height="41.868" filterUnits="userSpaceOnUse" color-interpolation-filters="sRGB">
<feFlood flood-opacity="0" result="BackgroundImageFix"/>
<feBlend mode="normal" in="SourceGraphic" in2="BackgroundImageFix" result="shape"/>
<feColorMatrix in="SourceAlpha" type="matrix" values="0 0 0 0 0 0 0 0 0 0 0 0 0 0 0 0 0 0 127 0" result="hardAlpha"/>
<feOffset dx="1.5" dy="1.5"/>
<feGaussianBlur stdDeviation="0.75"/>
<feComposite in2="hardAlpha" operator="arithmetic" k2="-1" k3="1"/>
<feColorMatrix type="matrix" values="0 0 0 0 0 0 0 0 0 0 0 0 0 0 0 0 0 0 0.25 0"/>
<feBlend mode="normal" in2="shape" result="effect1_innerShadow_184_199"/>
</filter>
</defs>
</svg>
