<svg width="90" height="80" viewBox="0 0 90 80" fill="none" xmlns="http://www.w3.org/2000/svg">
<g filter="url(#filter0_i_1028_526)">
<path d="M16.704 60.232L4.292 26.012C3.78933 24.5813 2.80333 23.6533 1.334 23.228L0.058 22.88V21.662H16.124V22.822L14.5 23.228C13.6107 23.46 13.108 23.866 12.992 24.446C12.9147 25.026 13.0307 25.7607 13.34 26.65L21.692 51.416L30.102 26.65C30.4113 25.7607 30.5467 25.026 30.508 24.446C30.508 23.866 30.0633 23.46 29.174 23.228L27.782 22.822V21.662H36.424V22.88L34.974 23.228C34.162 23.4213 33.582 23.75 33.234 24.214C32.9247 24.678 32.6347 25.316 32.364 26.128L20.822 60.232H16.704ZM45.8671 60V58.782L48.1871 58.318C49.8111 57.97 50.6231 57.0227 50.6231 55.476V39.642C50.6231 36.9353 50.6231 34.2287 50.6231 31.522C50.6231 28.8153 50.6038 26.1087 50.5651 23.402H45.9831C44.7458 23.402 43.8371 23.7307 43.2571 24.388C42.6771 25.0453 42.0971 25.9733 41.5171 27.172L39.4871 31.464H37.8631L38.1531 21.662H71.4451L71.7351 31.464H70.1111L68.0811 27.172C67.5011 25.9733 66.9211 25.0453 66.3411 24.388C65.7611 23.7307 64.8525 23.402 63.6151 23.402H58.9751V55.476C58.9751 57.0613 59.7871 58.0087 61.4111 58.318L63.7891 58.782V60H45.8671Z" fill="#CFB5A5"/>
</g>
<defs>
<filter id="filter0_i_1028_526" x="0.0579987" y="21.662" width="73.1771" height="40.07" filterUnits="userSpaceOnUse" color-interpolation-filters="sRGB">
<feFlood flood-opacity="0" result="BackgroundImageFix"/>
<feBlend mode="normal" in="SourceGraphic" in2="BackgroundImageFix" result="shape"/>
<feColorMatrix in="SourceAlpha" type="matrix" values="0 0 0 0 0 0 0 0 0 0 0 0 0 0 0 0 0 0 127 0" result="hardAlpha"/>
<feOffset dx="1.5" dy="1.5"/>
<feGaussianBlur stdDeviation="0.75"/>
<feComposite in2="hardAlpha" operator="arithmetic" k2="-1" k3="1"/>
<feColorMatrix type="matrix" values="0 0 0 0 0 0 0 0 0 0 0 0 0 0 0 0 0 0 0.25 0"/>
<feBlend mode="normal" in2="shape" result="effect1_innerShadow_1028_526"/>
</filter>
</defs>
</svg>
